<svg version="1.1" id="Layer_1" xmlns="http://www.w3.org/2000/svg" x="0" y="0" viewBox="0 0 54 54" style="enable-background:new 0 0 54 54" xml:space="preserve"><style>.st1{fill:#fff}</style><circle cx="27" cy="27" r="27" style="fill:#9a5ab5"/><path class="st1" d="M40.7 24 39 18l-26.7-4-.3-1h-1l12 38h1l-8.8-28z"/><path class="st1" d="m26 25-4.7 2.5L23 33l17-8zm-2.2 8.9 22 2.2-1.8-5.3L34 29zM33 36l-5.2 1 1.2 4 16-4zm-4 6 13.8-.6-6.9-.8z"/><path class="st1" d="M27 2C13.2 2 2 13.2 2 27c0 12.9 9.8 23.5 22.3 24.9l-.7-2.1C12.5 48.2 4 38.6 4 27 4 14.3 14.3 4 27 4s23 10.3 23 23-10.3 23-23 23c-.7 0-1.3 0-2-.1l.6 2.1h1.3c13.8 0 25-11.2 25-25S40.8 2 27 2z"/></svg>