<svg version="1.1" id="Layer_1" xmlns="http://www.w3.org/2000/svg" x="0" y="0" viewBox="0 0 54 54" style="enable-background:new 0 0 54 54" xml:space="preserve"><style>.st1{fill:#fff}</style><circle cx="27" cy="27" r="27" style="fill:#c60"/><path class="st1" d="M27 2C13.2 2 2 13.2 2 27s11.2 25 25 25 25-11.2 25-25S40.8 2 27 2zm0 48C14.3 50 4 39.7 4 27S14.3 4 27 4s23 10.3 23 23-10.3 23-23 23z"/><path class="st1" d="M30.7 23 27 11.7 23.3 23H11.4l9.7 6.6-3.7 10.9 9.6-7 9.6 7.1-3.7-11 9.7-6.6z"/></svg>