<svg version="1.1" id="Layer_1" xmlns="http://www.w3.org/2000/svg" x="0" y="0" viewBox="0 0 28 37" style="enable-background:new 0 0 28 37" xml:space="preserve"><style>.st0{fill:#fff}</style><path class="st0" d="M6.3 26.3c2.6 2.5 5.4 5.1 6.7 9.9l.2.7h1.5l.2-.7c1.3-4.8 4.1-7.4 6.7-9.9 3.1-3 6.3-6 6.3-12.3 0-7.7-6.3-14-14-14S0 6.3 0 14c0 6.3 3.2 9.4 6.3 12.3z"/><path d="M14 34.3c-1.6-4.3-4.2-6.8-6.6-9.1-3.1-3-5.9-5.6-5.9-11.3C1.5 7.1 7.1 1.5 14 1.5S26.5 7.1 26.5 14c0 5.7-2.7 8.3-5.9 11.3-2.4 2.2-5 4.8-6.6 9z" style="fill:#f39b19"/><path class="st0" d="M9 11h2v7H9zm4 0h2v7h-2zm4 0h2v7h-2zm-3-3 2.3 1H21l-7-3-7 3h4.7zm6 11H8v1H7v1h14v-1h-1zM7 9h14v1H7z"/></svg>