<svg version="1.1" id="Layer_1" xmlns="http://www.w3.org/2000/svg" x="0" y="0" viewBox="0 0 28 37" style="enable-background:new 0 0 28 37" xml:space="preserve"><style>.st0{fill:#fff}</style><path class="st0" d="M6.3 26.4c2.6 2.5 5.4 5.1 6.7 9.9l.2.7h1.5l.2-.7c1.3-4.8 4.1-7.4 6.7-9.9 3.1-3 6.3-6 6.3-12.3 0-7.7-6.3-14-14.1-14S0 6.3 0 14c0 6.4 3.2 9.5 6.3 12.4z"/><path d="M14.1 34.4c-1.6-4.3-4.2-6.8-6.6-9.1-3.1-3-5.9-5.6-5.9-11.3 0-6.8 5.6-12.4 12.5-12.4S26.6 7.1 26.6 14c0 5.7-2.7 8.3-5.9 11.3-2.4 2.3-5 4.9-6.6 9.1z" style="fill:#9a5ab5"/><path class="st0" d="m7 23 .6-.6v-12L7 9.9zM21.2 7c-2.4 0-3 2.3-3 2.3s-.2.9-1.2 1.4h2.8c.2-.7.2-1.4.2-1.4 0-.6.6-.6.6-.6s0 1.1 1.2 1.1c.6 0 1.2-.4 1.2-1.1 0-1.1-.6-1.7-1.8-1.7zm-2.5 4h-.4l.1.1c0 .1-2.3 5.2-10.2 6.6v2.1c8.2-1.4 10.3-8.3 10.5-8.8z"/><path class="st0" d="M17.5 11h-.4l.1.1c-.1.1-2.3 1.7-9 1.9v1.6c6.5-.8 8.9-3.1 9.3-3.6z"/><path class="st0" d="M18.1 11h-.4l.1.1c-.1.1-2.3 2.9-9.6 3.8v2.5c7.2-1.4 9.6-5.9 9.9-6.4z"/><path class="st0" d="M19 11c0 .1-2.1 7.6-10.8 9v1.8c8.2 0 10.9-7.9 11.6-10.9h-.9l.1.1zm-4.9.6c-3 0-5.9-.6-5.9-.6v1.7c4.4-.1 6.8-.9 8-1.4-.6.2-1.2.3-2.1.3z"/></svg>