<svg version="1.1" id="Layer_1" xmlns="http://www.w3.org/2000/svg" x="0" y="0" viewBox="0 0 54 54" style="enable-background:new 0 0 54 54" xml:space="preserve"><style>.st1{fill:#fff}</style><circle cx="27" cy="27" r="27" style="fill:#9a5ab5"/><path class="st1" d="M27 4c12.7 0 23 10.3 23 23S39.7 50 27 50 4 39.7 4 27 14.3 4 27 4m0-2C13.2 2 2 13.2 2 27s11.2 25 25 25 25-11.2 25-25S40.8 2 27 2z"/><path class="st1" d="m37.3 32.8.4.4.7-.3c-1.1 1-3.8 3.4-5.2 4-1.8.9-4.8 2.7-4.8-1.4 0-2.5-.2-8-.4-13.6l9-1v-1l-.2-.5L28 19v-1.6c1.6-.4 2.8-1.9 2.8-3.6 0-2.1-1.7-3.8-3.8-3.8s-3.8 1.7-3.8 3.8c0 1.7 1.2 3.2 2.8 3.6V19l-8.9.5-.1.5v1l9 1c-.1 5.5-.4 11.1-.4 13.6 0 4-3 2.3-4.8 1.4-1.4-.7-4.2-3.1-5.3-4.1l.7.3.4-.4.7-.6L12 30l1.7 5.7 1.2-1.2-.3-.7C17.1 36.6 26 44 27 44s10.1-7.5 12.5-10.3l-.3.8 1.2 1.2L42 30l-5.3 2.2.6.6zM27 14.8c-.9 0-.9.9-.9.9s-.1.2-.1.3c-.8-.3-1.3-1.3-1.3-2.2 0-1.2 1-2.3 2.3-2.3s2.3 1 2.3 2.3c0 .9-.5 1.9-1.3 2.2 0-.1-.1-.3-.1-.3s0-.9-.9-.9z"/></svg>