<svg version="1.1" id="Layer_1" xmlns="http://www.w3.org/2000/svg" x="0" y="0" viewBox="0 0 54 54" style="enable-background:new 0 0 54 54" xml:space="preserve"><style>.st1{fill:#fff}</style><circle cx="27" cy="27" r="27" style="fill:#f39b19"/><path class="st1" d="M27 2C13.2 2 2 13.2 2 27s11.2 25 25 25 25-11.2 25-25S40.8 2 27 2zm0 48C14.3 50 4 39.7 4 27S14.3 4 27 4s23 10.3 23 23-10.3 23-23 23z"/><path class="st1" d="M39 36h-1v-1H16v1h-1v1h-1v1h26v-1h-1zM14 20h1v1h24v-1h1v-1H14zm3.5 2L17 34h4l-.5-12zm16 0L33 34h4l-.5-12zm-8 0L25 34h4l-.5-12zm1.5-8 8.7 4H40l-13-6-13 6h4.3z"/><path class="st1" d="M22.7 18h8.6L27 16z"/></svg>