<svg version="1.1" id="Layer_1" xmlns="http://www.w3.org/2000/svg" x="0" y="0" viewBox="0 0 28 37" style="enable-background:new 0 0 28 37" xml:space="preserve"><style>.st0{fill:#fff}</style><path class="st0" d="M6.3 26.4c2.6 2.5 5.4 5.1 6.7 9.9l.2.7h1.5l.2-.7c1.3-4.8 4.1-7.4 6.7-9.9 3.1-3 6.3-6 6.3-12.3 0-7.7-6.3-14-14.1-14S0 6.3 0 14c0 6.4 3.2 9.5 6.3 12.4z"/><path d="M14.1 34.4c-1.6-4.3-4.2-6.8-6.6-9.1-3.1-3-5.9-5.6-5.9-11.3 0-6.8 5.6-12.4 12.5-12.4S26.6 7.1 26.6 14c0 5.7-2.7 8.3-5.9 11.3-2.4 2.3-5 4.9-6.6 9.1z" style="fill:#c60"/><path class="st0" d="m14.1 4.8 2 6.2h6.6l-5.3 4.3 2 6.5-5.3-3.8-5.4 4 2-6.7L5.4 11H12z"/></svg>