<svg version="1.1" id="Layer_1" xmlns="http://www.w3.org/2000/svg" x="0" y="0" viewBox="0 0 28 37" style="enable-background:new 0 0 28 37" xml:space="preserve"><style>.st0{fill:#fff}</style><path class="st0" d="M6.3 26.3c2.6 2.5 5.4 5.1 6.7 9.9l.2.7h1.5l.2-.7c1.3-4.8 4.1-7.4 6.7-9.9 3.1-3 6.3-6 6.3-12.3 0-7.7-6.3-14-14-14S0 6.3 0 14c0 6.3 3.2 9.4 6.3 12.3z"/><path d="M14 34.3c-1.6-4.3-4.2-6.8-6.6-9.1-3.1-3-5.9-5.6-5.9-11.3C1.5 7.1 7.1 1.5 14 1.5S26.5 7.1 26.5 14c0 5.7-2.7 8.3-5.9 11.3-2.4 2.2-5 4.8-6.6 9z" style="fill:#e64e3f"/><path class="st0" d="M15.2 14.1c-.3.3-.2.7.4 1.3.6.6 1 .7 1.3.4.3-.3.2-.7-.4-1.3s-1-.7-1.3-.4z"/><path class="st0" d="m14 6-9 9v1l7 7h1l9-9V6h-8zm-2.7 10.8c-.1.2-.2.5-.4.7s-.4.4-.7.4c-.2.1-.5.1-.8.1s-.5-.1-.8-.2-.5-.3-.8-.6c-.3-.3-.4-.5-.6-.8-.1-.3-.2-.5-.2-.8s0-.5.1-.8.2-.5.4-.7c.2-.2.4-.3.7-.4.2-.1.5-.1.8-.1s.5.1.8.2c.3.1.5.3.8.6s.4.5.6.8c.1.3.2.5.2.8 0 .3 0 .6-.1.8zM13 20l-2-9 1-1 2 9-1 1zm5.1-4.1c-.1.2-.2.5-.4.7-.2.2-.4.4-.7.4-.2.1-.5.1-.8.1-.3 0-.5-.1-.8-.2s-.5-.3-.8-.6c-.3-.3-.4-.5-.6-.8-.1-.3-.2-.5-.2-.8s0-.5.1-.8c.1-.2.2-.5.4-.7s.4-.3.7-.4c.2-.1.5-.1.8-.1s.5.1.8.2c.3.1.5.3.8.6s.4.5.6.8c.1.3.2.5.2.8s0 .5-.1.8zm1.5-5.3c-.6.6-1.5.6-2.1 0s-.6-1.5 0-2.1 1.5-.6 2.1 0c.5.5.5 1.5 0 2.1z"/><path class="st0" d="M8.4 15.1c-.3.3-.2.7.4 1.3.5.5 1 .7 1.3.4.3-.3.2-.7-.4-1.3s-1-.8-1.3-.4z"/></svg>