<svg xmlns="http://www.w3.org/2000/svg" viewBox="0 0 54 54" style="enable-background:new 0 0 54 54" xml:space="preserve"><circle cx="27" cy="27" r="27" style="fill:#20bb9b"/><path d="M27 2C13.2 2 2 13.2 2 27s11.2 25 25 25 25-11.2 25-25S40.8 2 27 2zM8.8 13l12.7 9.2-11.4-10.7c.7-.7 1.4-1.4 2.2-2.1l10.1 12.2-8.6-13.4c.8-.6 1.7-1.1 2.6-1.6L23.1 21 18.2 5.7C20.9 4.6 23.9 4 27 4c3.1 0 6.1.6 8.8 1.7l-4.9 15.2 6.7-14.4c.9.5 1.8 1 2.6 1.6l-8.5 13.4L41.8 9.4c.8.7 1.5 1.4 2.2 2.1L32.5 22.1 45.2 13c3 3.9 4.8 8.8 4.8 14 0 .6 0 1.1-.1 1.7v-.2l-15.6.1 8.2-5.5H30.7L27 11.7 23.3 23H11.4l8 5.5H4.1C4 28 4 27.5 4 27c0-5.3 1.8-10.2 4.8-14zm24 22.3L27 31.1l-5.8 4.1 2.2-6.4-5.5-3.8h6.9l2.2-6.8 2.2 6.8h6.9l-5.5 3.7 2.2 6.6zm-.1 14L28 35l2.9 14.7c-1 .2-1.9.3-2.9.3l-1-15-.9 15c-1 0-2-.1-2.9-.3L26 35l-4.7 14.3c-5.6-1.4-10.3-4.9-13.4-9.5l12.8-9.4-13.8 7.7c-.5-.9-.9-1.8-1.3-2.8l14.8-5.9-15.5 4c-.3-1-.5-2-.7-3l15.3-1.9 1.5 1-3.7 10.9 9.6-6.9 9.6 7.1-3.7-11.1 1.5-1 15.4 1.9c-.2 1-.4 2-.7 3l-15.5-4 14.8 5.9c-.4 1-.8 1.9-1.3 2.8l-13.8-7.7L46 39.8c-3 4.6-7.8 8.1-13.3 9.5z" style="fill:#fff"/></svg>