<svg version="1.1" id="Layer_1" xmlns="http://www.w3.org/2000/svg" x="0" y="0" viewBox="0 0 28 37" style="enable-background:new 0 0 28 37" xml:space="preserve"><style>.st0{fill:#fff}</style><path class="st0" d="M6.3 26.3c2.6 2.5 5.4 5.1 6.7 9.9l.2.7h1.5l.2-.7c1.3-4.8 4.1-7.4 6.7-9.9 3.1-3 6.3-6 6.3-12.3 0-7.7-6.3-14-14-14S0 6.3 0 14c0 6.3 3.2 9.4 6.3 12.3z"/><path d="M14 34.3c-1.6-4.3-4.2-6.8-6.6-9.1-3.1-3-5.9-5.6-5.9-11.3C1.5 7.1 7.1 1.5 14 1.5S26.5 7.1 26.5 14c0 5.7-2.7 8.3-5.9 11.3-2.4 2.2-5 4.8-6.6 9z" style="fill:#3797da"/><path class="st0" d="M6 10.5h2v6H6zm14 0h2v6h-2zm-11.5 0h11v6h-11zm12.1 7.9L22 17h-4c1.1 0 2 .6 2.6 1.4zm-13.2 0C8 17.6 8.9 17 10 17H6l1.4 1.4zM13 20h2c0-1.7 1.3-3 3-3h-8c1.7 0 3 1.3 3 3z"/><path class="st0" d="M18 18c-1.1 0-2 .9-2 2s.9 2 2 2 2-.9 2-2-.9-2-2-2zm0 3c-.6 0-1-.4-1-1s.4-1 1-1 1 .4 1 1-.4 1-1 1zm-8-3c-1.1 0-2 .9-2 2s.9 2 2 2 2-.9 2-2-.9-2-2-2zm0 3c-.6 0-1-.4-1-1s.4-1 1-1 1 .4 1 1-.4 1-1 1zm7-15-2 1-3-2-5 5h14z"/></svg>