<svg version="1.1" id="Layer_1" xmlns="http://www.w3.org/2000/svg" x="0" y="0" viewBox="0 0 28 37" style="enable-background:new 0 0 28 37" xml:space="preserve"><style>.st0{fill:#fff}</style><path class="st0" d="M6.3 26.3c2.6 2.5 5.4 5.1 6.7 9.9l.2.7h1.5l.2-.7c1.3-4.8 4.1-7.4 6.7-9.9 3.1-3 6.3-6 6.3-12.3 0-7.7-6.3-14-14-14S0 6.3 0 14c0 6.3 3.2 9.4 6.3 12.3z"/><path d="M14 34.3c-1.6-4.3-4.2-6.8-6.6-9.1-3.1-3-5.9-5.6-5.9-11.3C1.5 7.1 7.1 1.5 14 1.5S26.5 7.1 26.5 14c0 5.7-2.7 8.3-5.9 11.3-2.4 2.2-5 4.8-6.6 9z" style="fill:#f39b19"/><path class="st0" d="M22.9 22.9c-1.1-1.1-5.7-3.4-5.7-3.4l-.4-1.4-.5-.1-.2-1.4h.1l.5-.8.4-1.4h.1l.3-.5.2-.7v-1l-.1-.2h-.2l.5-1.5V9.1l-.2-.6-.4-.5-.1-.2-.8-.2-.3-.6-.6-.5-.6-.5h-1.1l-.9.4-.9.5-.5.6-.7.4h-.9l.4 1.1v1.4l.5 1.5h-.2l-.1.3v.9l.1.7.3.5h.1l.4 1.4.5.8-.2 1.5-.5.1-.4 1.4s-4.7 2.3-5.7 3.4.3 1.9.3 1.9l5 5.4 3.1 5.5h1.2l2.6-5 5.3-5.9c-.1 0 1.4-.9.3-1.9z"/></svg>