<svg version="1.1" id="Layer_1" xmlns="http://www.w3.org/2000/svg" x="0" y="0" viewBox="0 0 54 54" style="enable-background:new 0 0 54 54" xml:space="preserve"><style>.st0{fill:#e64e3f}.st1{fill:#fff}</style><circle class="st0" cx="27" cy="27" r="27"/><path class="st1" d="M27 4c12.7 0 23 10.3 23 23S39.7 50 27 50 4 39.7 4 27 14.3 4 27 4m0-2C13.2 2 2 13.2 2 27s11.2 25 25 25 25-11.2 25-25S40.8 2 27 2z"/><circle class="st1" cx="29" cy="25" r="14"/><path transform="rotate(-45.001 34.528 19.382)" class="st0" d="M26.5 12.7h16.1v13.4H26.5z"/><path transform="rotate(-45.001 15 38)" class="st1" d="M7.2 33.1h15.6V43H7.2z"/><path class="st0" d="m25.3 28.7 8.3 1.1v-9.5h-9.5z"/><path class="st0" d="M31 9v14h14l-4-11zM6 44l8.5-8.5c.8-.8 2.2-.8 3 0 .8.8.8 2.2 0 3L9 47l-3-3z"/></svg>