<svg version="1.1" id="Layer_1" xmlns="http://www.w3.org/2000/svg" x="0" y="0" viewBox="0 0 54 54" style="enable-background:new 0 0 54 54" xml:space="preserve"><style>.st0{fill:#e64e3f}.st1{fill:#fff}</style><circle class="st0" cx="27" cy="27" r="27"/><path class="st1" d="M27 4c12.7 0 23 10.3 23 23S39.7 50 27 50 4 39.7 4 27 14.3 4 27 4m0-2C13.2 2 2 13.2 2 27s11.2 25 25 25 25-11.2 25-25S40.8 2 27 2z"/><path class="st1" d="M28.6 27.7c-.6.6-.3 1.3.6 2.3 1 1 1.8 1.2 2.3.7.6-.6.3-1.3-.7-2.3-.9-1-1.7-1.2-2.2-.7z"/><path class="st1" d="M26.9 13 10 29.9v1.4L22.7 44h1.4L41 27.1V13H26.9zm-5.4 19.7c-.2.4-.4.9-.8 1.2-.4.4-.8.6-1.2.8-.5.2-.9.3-1.4.3-.5 0-1-.2-1.4-.4-.5-.2-1-.6-1.4-1.1-.5-.5-.8-.9-1.1-1.4-.2-.5-.4-1-.4-1.4 0-.5 0-.9.2-1.4.2-.4.4-.8.8-1.2.4-.4.8-.6 1.2-.8.4-.2.9-.2 1.4-.2.5 0 1 .2 1.5.4s1 .6 1.4 1c.5.5.8.9 1 1.4.2.5.4 1 .4 1.4 0 .5 0 1-.2 1.4zm4.2 6.5-5.1-16.6 1.7-1.7 5.1 16.5-1.7 1.8zm8.1-8.2c-.2.4-.4.8-.8 1.2-.4.4-.8.6-1.2.8-.4.2-.9.2-1.4.2-.5 0-1-.2-1.4-.4-.5-.2-1-.6-1.4-1.1-.5-.5-.8-.9-1-1.4-.2-.5-.4-1-.4-1.4 0-.5 0-.9.2-1.4.2-.4.4-.8.8-1.2.4-.4.8-.6 1.2-.8.4-.2.9-.2 1.4-.2.5 0 1 .2 1.5.4s1 .6 1.4 1c.5.5.8.9 1.1 1.4.2.5.4 1 .4 1.5-.1.5-.2.9-.4 1.4zm2.6-8.7a3.32 3.32 0 0 1-4.7 0 3.32 3.32 0 0 1 0-4.7c1.3-1.3 3.4-1.3 4.7 0 1.3 1.3 1.3 3.4 0 4.7z"/><path class="st1" d="M16.2 29.5c-.5.5-.3 1.3.7 2.3 1 1 1.8 1.2 2.3.7.6-.6.3-1.3-.7-2.3-1-1-1.7-1.2-2.3-.7zM33 17v2h1l9-9-2-1z"/><path class="st0" d="m41 12-7 7 1 1 10-10-1-1z"/></svg>