<svg version="1.1" id="Layer_1" xmlns="http://www.w3.org/2000/svg" xmlns:xlink="http://www.w3.org/1999/xlink" x="0" y="0" viewBox="0 0 54 54" style="enable-background:new 0 0 54 54" xml:space="preserve"><style>.st1{fill:#fff}</style><circle cx="27" cy="27" r="27" style="fill:#20bb9b"/><path class="st1" d="M27 2C13.2 2 2 13.2 2 27s11.2 25 25 25 25-11.2 25-25S40.8 2 27 2zm0 48C14.3 50 4 39.7 4 27S14.3 4 27 4s23 10.3 23 23-10.3 23-23 23z"/><defs><circle id="SVGID_1_" cx="27" cy="27" r="24"/></defs><clipPath id="SVGID_00000063631110170670668810000012619725948735932849_"><use xlink:href="#SVGID_1_" style="overflow:visible"/></clipPath><path class="st1" d="M14 26h26v3H14zm0 6h26v6H14zm8.7-8 4.3-2.8 4.3 2.8-1.3-4.9 4-3.2-5.2-.2L27 11l-1.8 4.7-5.2.3 4 3.2-1.3 4.8zm0-7.2 2.5-.1h.7l.2-.6.9-2.3.9 2.3.2.6h.7l2.5.1-1.9 1.5-.5.4.2.6.7 2.3-2.1-1.4-.7-.2-.5.3-2.1 1.4.7-2.3.2-.6-.5-.4-2.1-1.6z"/></svg>