<svg xmlns="http://www.w3.org/2000/svg" viewBox="0 0 54 54" style="enable-background:new 0 0 54 54" xml:space="preserve"><circle cx="27" cy="27" r="27" style="fill:#f39b19"/><path d="M27 2C13.2 2 2 13.2 2 27s11.2 25 25 25 25-11.2 25-25S40.8 2 27 2zm17.2 40.3c-.1-.1-.1-.2-.2-.3-2-2-10.9-6.4-10.9-6.4l-.8-2.7-.9-.2L31 30h.1l.9-1.6.7-2.6h.3l.6-.9.3-1.3.1-1.9-.2-.4h-.4l.9-2.8.1-2.7-.3-1.2-.7-1-.3-.3-1.6-.3-.5-1-1.1-1-1.2-1h-2.1l-1.6.8-1.6.9-.9 1.2-1.3.7h-.1l-1.5-.1.4 2.2v.1l.1 2.7.9 2.8h-.4l-.2.6.1 1.7.3 1.3.6 1h.3l.7 2.6.9 1.5v.1l-.4 2.7-.9.2-.8 2.7s-8.9 4.4-10.9 6.4c-.1.1-.1.2-.2.3C6.2 38.2 4 32.9 4 27 4 14.3 14.3 4 27 4s23 10.3 23 23c0 5.9-2.2 11.2-5.8 15.3z" style="fill:#fff"/></svg>