<svg version="1.1" id="Layer_1" xmlns="http://www.w3.org/2000/svg" x="0" y="0" viewBox="0 0 54 54" style="enable-background:new 0 0 54 54" xml:space="preserve"><style>.st1{fill:#fff}</style><circle cx="27" cy="27" r="27" style="fill:#3797da"/><path class="st1" d="M27 3.5C40 3.5 50.5 14 50.5 27S40 50.5 27 50.5 3.5 40 3.5 27 14 3.5 27 3.5M27 2C13.2 2 2 13.2 2 27s11.2 25 25 25 25-11.2 25-25S40.8 2 27 2z"/><path class="st1" d="m26 34-7-7 14-14V9h-4L11 27l11 11z"/><path class="st1" d="m32 16-4 4 7 7-14 14v4h4l18-18z"/></svg>