<svg version="1.1" id="Layer_1" xmlns="http://www.w3.org/2000/svg" x="0" y="0" viewBox="0 0 28 37" style="enable-background:new 0 0 28 37" xml:space="preserve"><style>.st0{fill:#fff}</style><path class="st0" d="M6.3 26.4c2.6 2.5 5.4 5.1 6.7 9.9l.2.7h1.5l.2-.7c1.3-4.8 4.1-7.4 6.7-9.9 3.1-3 6.3-6 6.3-12.3 0-7.7-6.3-14-14.1-14S0 6.3 0 14c0 6.4 3.2 9.5 6.3 12.4z"/><path d="M14.1 34.4c-1.6-4.3-4.2-6.8-6.6-9.1-3.1-3-5.9-5.6-5.9-11.3 0-6.8 5.6-12.4 12.5-12.4S26.6 7.1 26.6 14c0 5.7-2.7 8.3-5.9 11.3-2.4 2.3-5 4.9-6.6 9.1z" style="fill:#20bb9b"/><path class="st0" d="M23.7 11h-7.3l-2.3-7-2.3 7H4.4l5.9 4.6L8 23l5.9-4.4 5.9 4.2-2.3-7.1 6.2-4.7zm-6.3 8-3.3-2.3-3.3 2.4 1.3-4.1-3.4-2.6h4.2l1.2-3.7 1.2 3.8h4.2L16.1 15l1.3 4z"/><path class="st0" d="M14 19.1 13.4 36h1.2zm-4 10.4c.1.1.2.1.2.2.1.1.3.3.4.5.1.1.1.2.2.3l2.6-11.4L10 29.5zm7.3 1.3c.1-.1.2-.2.3-.4.1-.1.2-.3.3-.4.1-.1.1-.2.2-.2L14.5 19l2.8 11.8zm.4-14.8 8.3 3.3.4-1.1zm-.2.5 7.2 5.3.6-.9zm.4-1.1h8.9v1.1zm-1.3-3.9 5.7-6.9-.9-.6zm.5.4 7.2-5.3-.7-.8zm-.9-.7 2.7-8.5 1.1.4zm-4.8.3L6.6 4l-.9.6zm.4-.3L9.1 2.7 8 3.1zm-.9.7L3.7 6.6l.7-.8zm-.6 4.1-8.7 2.2.4 1.1zm-.2-.6H1.2v1.1zm.4 1.1-7.2 5.3-.7-1z"/></svg>