<svg version="1.1" id="Layer_1" xmlns="http://www.w3.org/2000/svg" x="0" y="0" viewBox="0 0 54 54" style="enable-background:new 0 0 54 54" xml:space="preserve"><style>.st1{fill:#fff}</style><circle cx="27" cy="27" r="27" style="fill:#9a5ab5"/><path class="st1" d="M27 4c12.7 0 23 10.3 23 23S39.7 50 27 50 4 39.7 4 27 14.3 4 27 4m0-2C13.2 2 2 13.2 2 27s11.2 25 25 25 25-11.2 25-25S40.8 2 27 2z"/><path class="st1" d="m15 42 1-1V20l-1-1zm24-28c-4 0-5 4-5 4s-.4 1.6-2.1 2.5h4.7c.3-1.2.4-2.5.4-2.5 0-1 1-1 1-1s0 2 2 2c1 0 2-.7 2-2 0-2-1.1-3-3-3zm-4.3 7H34l.2.1c0 .1-4 9.1-17.2 11.5v3.7C30.8 33.9 34.5 22 34.7 21z"/><path class="st1" d="M32.7 21H32l.2.2c-.2.2-3.9 3.1-15.2 3.3v2.7c11-1.3 15-5.4 15.7-6.2z"/><path class="st1" d="M33.7 21H33l.2.1c-.2.2-3.8 5.1-16.2 6.6V32c12.2-2.2 16.3-10.1 16.7-11z"/><path class="st1" d="M35.2 21.1c0 .1-3.5 13.3-18.2 15.8v3.2c13.8 0 18.3-13.8 19.6-19H35h.2zM27 22c-5 0-10-1-10-1v3c7.4-.2 11.6-1.6 13.5-2.5-.9.3-2.1.5-3.5.5z"/></svg>