<svg version="1.1" id="Layer_1" xmlns="http://www.w3.org/2000/svg" x="0" y="0" viewBox="0 0 54 54" style="enable-background:new 0 0 54 54" xml:space="preserve"><style>.st1{fill:#fff}</style><circle cx="27" cy="27" r="27" style="fill:#3797da"/><path class="st1" d="M27 4c12.7 0 23 10.3 23 23S39.7 50 27 50 4 39.7 4 27 14.3 4 27 4m0-2C13.2 2 2 13.2 2 27s11.2 25 25 25 25-11.2 25-25S40.8 2 27 2z"/><path class="st1" d="M13 32.5h4v-15h-4V30h-1v-1h-1v4h1v-1h1zm5-15h18v15H18zM39 16l-1-1-3-2-2 2-1-1-1 1-1-1-1-1-2-1-2 1-2 2-1-1-3 2-2-1-3 2h26zM25 38l-1 1h6l-1-1zm-6-5c-2.2 0-4 1.8-4 4s1.8 4 4 4 4-1.8 4-4-1.8-4-4-4zm0 6.3c-1.3 0-2.3-1-2.3-2.3s1-2.3 2.3-2.3c1.3 0 2.3 1 2.3 2.3s-1 2.3-2.3 2.3zM35 33c-2.2 0-4 1.8-4 4s1.8 4 4 4 4-1.8 4-4-1.8-4-4-4zm0 6.3c-1.3 0-2.3-1-2.3-2.3s1-2.3 2.3-2.3c1.3 0 2.3 1 2.3 2.3s-1 2.3-2.3 2.3zM32 33H22c1.2.9 2 2.4 2 4h6c0-1.6.8-3.1 2-4zm10-4v1h-1V17.5h-4v15h4V32h1v1h1v-4zm-26 4h-3l1.6 1.6c.4-.6.9-1.2 1.4-1.6zm23.4 1.6L41 33h-3c.5.4 1 1 1.4 1.6z"/></svg>