<svg version="1.1" id="Layer_1" xmlns="http://www.w3.org/2000/svg" x="0" y="0" viewBox="0 0 54 54" style="enable-background:new 0 0 54 54" xml:space="preserve"><style>.st1{fill:#fff}</style><circle cx="27" cy="27" r="27" style="fill:#3797da"/><path class="st1" d="M27 4c12.7 0 23 10.3 23 23S39.7 50 27 50 4 39.7 4 27 14.3 4 27 4m0-2C13.2 2 2 13.2 2 27s11.2 25 25 25 25-11.2 25-25S40.8 2 27 2z"/><path class="st1" d="M22 25v-1H11v1l4 2v9l-4 2v1h11v-1l-4-2v-9zm12 0v-1H23v1l4 2v9l-4 2v1h11v-1l-4-2v-9zm-11-2 9-9H21l-8.9 9zm10-9-9 9h11l9-9z"/><path class="st1" d="M35 23v1l9-9v-1zm0 14v1l9-9v-1z"/></svg>